<svg width="400" height="84" viewBox="0 0 400 84" fill="none" xmlns="http://www.w3.org/2000/svg">
<rect width="48" height="48" rx="8" transform="matrix(-1 -8.74228e-08 -8.74228e-08 1 72 24)" fill="#FAF4F4"/>
<path d="M39 45.4161C39 45.0467 39.188 44.7001 39.5046 44.486L47.3046 39.2112C47.7209 38.9296 48.2791 38.9296 48.6954 39.2112L56.4954 44.486C56.812 44.7001 57 45.0467 57 45.4161V55.2882C57 56.2336 56.1941 57 55.2 57H40.8C39.8059 57 39 56.2336 39 55.2882V45.4161Z" stroke="#A85757" stroke-width="2"/>
<path d="M379.25 43.25L369.75 52.75M379.25 52.75L369.75 43.25" stroke="#352424" stroke-width="1.5" stroke-linecap="round"/>
</svg>
